<svg version="1.1" id="Layer_1" xmlns="http://www.w3.org/2000/svg" xmlns:xlink="http://www.w3.org/1999/xlink" x="0px" y="0px"
	 width="100%" viewBox="0 0 1024 1024" enable-background="new 0 0 1024 1024" xml:space="preserve">
<path fill="#000000" opacity="1.000000" stroke="none" 
	d="
M524.212769,430.955688 
	C534.902161,463.002563 535.269043,494.901245 524.560059,526.425232 
	C513.070068,560.248169 488.189880,580.545898 454.852936,591.175537 
	C426.962524,600.068420 398.356567,601.211853 369.413605,598.539307 
	C358.154846,597.499634 346.842834,597.041504 335.558075,596.273865 
	C333.815216,596.155334 331.644135,596.957886 330.533051,594.996033 
	C329.244843,592.721375 331.698303,591.930481 332.678528,590.543152 
	C337.156372,584.205688 337.545715,576.778381 337.590271,569.500000 
	C337.779938,538.511658 337.687866,507.521637 337.688965,476.532196 
	C337.690002,447.042267 337.680786,417.552307 337.671875,388.062378 
	C337.670197,382.531036 336.619873,377.183624 335.215790,371.839020 
	C334.380035,368.657654 330.980316,367.210052 330.378906,364.079163 
	C331.832550,362.023224 333.832855,362.677155 335.549469,362.653473 
	C342.879059,362.552307 350.218658,362.777435 357.537689,362.474304 
	C361.461853,362.311798 362.381500,363.925781 362.314178,367.450226 
	C362.152374,375.920227 362.261810,384.395447 362.261810,394.390320 
	C371.473206,375.630646 386.134705,365.754822 404.639771,361.528351 
	C433.039154,355.042053 459.160858,361.345245 483.123993,377.196991 
	C502.842773,390.240997 515.965271,408.543091 524.212769,430.955688 
M408.639374,594.864319 
	C412.274536,594.476868 415.952850,594.323914 419.537933,593.664185 
	C443.991608,589.164673 465.462830,579.164490 481.841248,559.753784 
	C495.575714,543.476624 503.024017,524.538940 505.968903,503.644501 
	C509.948059,475.411896 507.774200,447.844513 496.713043,421.329437 
	C483.104218,388.707306 450.004059,361.836884 408.724213,366.206116 
	C381.453583,369.092529 362.235168,389.569397 362.261200,416.951019 
	C362.274689,431.115356 362.265686,445.279663 362.267029,459.444000 
	C362.271057,502.270264 362.283936,545.096558 362.261047,587.922791 
	C362.259399,591.030579 361.973328,594.168030 366.359589,594.415466 
	C380.138855,595.192749 393.907013,596.879028 408.639374,594.864319 
z"/>
<path fill="#000000" opacity="1.000000" stroke="none" 
	d="
M584.843201,462.361511 
	C601.138000,462.963348 616.781189,461.202332 632.114380,456.897308 
	C636.789856,455.584534 641.168091,453.602905 645.334106,451.082611 
	C648.173889,449.364563 650.210022,449.893188 650.233459,453.666718 
	C650.278992,460.997162 650.283386,468.328491 650.217651,475.658691 
	C650.184509,479.353088 648.187439,479.961670 645.282043,478.334412 
	C627.296326,468.261200 607.514343,467.470215 587.641846,467.032043 
	C584.327454,466.958984 583.332642,468.444824 583.339417,471.563812 
	C583.411499,504.719666 583.193115,537.878113 583.571716,571.029907 
	C583.656921,578.483521 583.996765,586.247070 589.933472,592.505371 
	C592.766174,595.491455 589.295471,596.211304 586.889526,596.223694 
	C576.226624,596.278748 565.563293,596.241516 554.900085,596.222534 
	C554.239746,596.221375 553.539429,596.207336 552.927002,595.997192 
	C551.075500,595.361633 550.452881,593.778137 551.795959,592.549133 
	C558.497498,586.416931 558.486328,578.040710 558.521240,570.259705 
	C558.792603,509.780151 558.778076,449.298431 558.544373,388.818573 
	C558.510803,380.140839 558.177124,371.066833 551.136780,364.681488 
	C551.827942,362.460602 553.318054,362.705017 554.596558,362.586731 
	C564.578857,361.663116 574.561279,362.509613 584.544312,362.521698 
	C619.193726,362.563660 653.843506,362.269531 688.493164,362.117218 
	C696.206848,362.083282 696.211243,362.109436 696.213623,369.895447 
	C696.215271,375.393677 696.276123,380.893219 696.176636,386.389771 
	C696.080139,391.717529 694.402405,392.675110 689.706360,389.858917 
	C680.544800,384.364929 671.165100,379.356293 661.139648,375.593079 
	C642.678223,368.663300 623.649353,365.377808 603.908203,366.244019 
	C598.586731,366.477509 593.244202,366.374878 587.915649,366.246826 
	C584.816833,366.172363 583.345154,367.205566 583.352661,370.533875 
	C583.419189,400.024261 583.392456,429.514893 583.398010,459.005432 
	C583.398193,460.176697 583.419006,461.357056 584.843201,462.361511 
z"/>
<path fill="#000000" opacity="1.000000" stroke="none" 
	d="
M564.942932,229.213455 
	C541.347046,224.834061 518.065796,223.491318 494.482056,225.036591 
	C455.161285,227.612991 417.908234,237.610382 383.352936,256.286957 
	C317.266724,292.005554 271.986176,345.582153 248.240173,417.079041 
	C236.849274,451.375977 233.224670,486.705841 235.512314,522.540161 
	C237.739624,557.429199 246.925919,590.712463 261.970123,622.324158 
	C262.614136,623.677368 263.291626,625.019897 263.837219,626.413025 
	C264.361084,627.750671 263.714874,628.657776 262.478851,629.184265 
	C261.437378,629.627869 260.456360,629.459839 259.846527,628.491028 
	C259.139771,627.368103 258.548370,626.165894 257.980530,624.963318 
	C243.411102,594.106873 234.193146,561.793152 231.593887,527.692871 
	C224.990204,441.057709 251.542023,366.079956 312.006927,303.768066 
	C349.681000,264.943176 395.570496,239.668610 448.308960,227.303955 
	C491.799561,217.107498 535.372253,217.074081 578.873169,227.554993 
	C580.003418,227.827286 581.116516,228.170624 582.246033,228.446136 
	C583.747559,228.812424 584.679749,229.562729 584.164856,231.263733 
	C583.654236,232.950562 582.437744,232.981918 580.973022,232.654556 
	C575.778137,231.493530 570.569885,230.392105 564.942932,229.213455 
z"/>
<path fill="#000000" opacity="1.000000" stroke="none" 
	d="
M400.944550,756.938232 
	C427.391785,768.577820 454.578796,775.928284 482.974030,778.839355 
	C560.239990,786.760681 629.261353,766.213806 689.328064,717.347534 
	C743.174255,673.541870 775.317017,616.505432 787.445129,548.236572 
	C790.243652,532.483826 791.260437,516.521301 790.943481,500.499847 
	C790.917114,499.167389 790.908325,497.833313 790.941284,496.501251 
	C790.982422,494.835388 791.521545,493.422760 793.484924,493.525787 
	C795.323730,493.622284 795.235596,495.191223 795.363831,496.514801 
	C796.234680,505.505859 795.724792,514.534790 795.005554,523.452820 
	C793.154907,546.398254 788.818054,568.904907 781.534790,590.820190 
	C765.398560,639.374512 738.071106,680.427856 699.808960,714.378601 
	C664.421875,745.778381 623.697510,766.785522 577.757690,777.607361 
	C546.740356,784.913940 515.378296,786.974487 483.548492,783.555298 
	C449.365631,779.883362 417.015686,770.457825 386.291199,755.249451 
	C384.318542,754.273071 379.772461,754.054077 381.590546,750.375549 
	C383.424744,746.664551 386.214050,750.291992 388.352783,751.136230 
	C392.526978,752.783875 396.522400,754.884521 400.944550,756.938232 
z"/>
<path fill="#000000" opacity="1.000000" stroke="none" 
	d="
M751.179199,393.467651 
	C753.920715,394.531738 755.566040,393.253326 757.290039,391.534546 
	C756.525208,389.181732 756.176208,386.269653 753.488953,385.612518 
	C750.852905,384.967865 749.656616,387.616699 748.283508,389.728088 
	C745.650757,388.095825 745.488464,385.322998 744.033813,382.925323 
	C750.974670,381.962341 756.965759,380.237762 761.185730,374.150970 
	C763.229492,376.252686 764.362793,378.581482 764.857971,381.780426 
	C762.204590,381.717987 759.150391,380.681854 757.959106,383.399261 
	C756.852844,385.922852 759.072205,387.941254 760.212524,390.160492 
	C763.257568,389.674927 765.535828,388.657410 765.929932,384.875122 
	C768.680359,387.117371 769.632935,389.595520 770.258606,392.348328 
	C763.506592,393.019257 757.816467,395.403656 753.380859,400.424500 
	C750.397522,397.295990 750.106323,396.492126 751.179199,393.467651 
z"/>
<path fill="#000000" opacity="1.000000" stroke="none" 
	d="
M295.341309,661.510437 
	C297.741730,660.334839 298.029083,658.009644 299.197021,655.832947 
	C302.501648,658.971863 305.031982,662.175354 306.469757,666.084473 
	C307.754486,669.577393 305.755493,673.441528 302.485626,672.940002 
	C296.519470,672.024902 296.498413,675.798096 296.000092,679.616333 
	C295.916016,680.260620 295.752228,680.894470 295.505402,682.136108 
	C289.160339,678.037415 294.066925,673.195679 294.183563,668.732422 
	C290.502502,668.505432 290.128174,671.468140 289.145660,673.936340 
	C286.376038,672.340332 285.382904,669.891541 283.573700,667.153748 
	C288.606628,667.144836 291.665802,664.111877 295.341309,661.510437 
M302.521423,668.176697 
	C304.250732,665.891907 303.373596,664.311768 301.101196,662.799316 
	C299.478119,664.325867 296.056305,664.343201 297.203125,667.612915 
	C298.002899,669.893127 300.026825,670.188965 302.521423,668.176697 
z"/>
<path fill="#000000" opacity="1.000000" stroke="none" 
	d="
M630.708740,258.975861 
	C630.079529,256.527069 629.262756,256.825226 628.040833,258.254700 
	C626.655701,259.875153 628.074341,261.787170 627.267273,263.705536 
	C624.561157,263.269012 622.413208,262.015808 620.473572,260.181274 
	C625.597168,255.738358 628.702148,250.465012 629.508972,243.505371 
	C633.470764,244.528625 637.038269,246.438080 639.952209,249.365921 
	C642.217896,251.642441 643.113220,255.214859 639.945374,256.546539 
	C633.426880,259.286713 635.041382,263.545837 637.292114,269.335388 
	C631.457153,267.262299 630.968445,263.374695 630.708740,258.975861 
M635.736023,249.225418 
	C632.278503,248.464905 631.761230,251.180893 631.562317,253.332779 
	C631.405579,255.028900 633.221436,255.884293 634.823120,255.369492 
	C636.973511,254.678375 638.033508,253.055420 637.214600,250.701385 
	C637.062378,250.263580 636.599976,249.933670 635.736023,249.225418 
z"/>
<path fill="#000000" opacity="1.000000" stroke="none" 
	d="
M351.174072,738.419678 
	C356.118988,734.114685 360.222839,729.402283 362.029114,722.247620 
	C366.285370,724.586243 370.685638,726.952576 372.937408,731.852661 
	C374.721802,735.735840 373.817657,739.361694 370.958466,742.382874 
	C368.034698,745.472290 364.389740,746.007324 360.462494,744.594238 
	C356.973907,743.338928 354.278961,740.812805 351.174072,738.419678 
M358.739105,740.944763 
	C362.838684,743.000977 366.087494,741.973267 368.481720,737.704224 
	C370.693848,733.759827 370.113403,730.462708 365.507233,727.731262 
	C363.022339,732.088196 358.112305,734.726196 358.739105,740.944763 
z"/>
<path fill="#000000" opacity="1.000000" stroke="none" 
	d="
M272.071350,648.919800 
	C270.508514,646.354248 269.164703,644.089050 267.579224,641.416443 
	C274.935303,640.894958 280.088501,637.367615 284.622772,632.065125 
	C287.284149,634.228638 288.581512,637.464539 289.886932,640.632874 
	C290.699463,642.604919 290.472290,645.833008 288.685516,645.853088 
	C283.097137,645.915833 283.197754,655.477844 276.447479,652.718201 
	C274.711823,652.008667 273.396179,650.719360 272.071350,648.919800 
M276.682281,643.457092 
	C275.568268,644.471802 273.186676,644.665405 274.053253,646.984802 
	C274.518921,648.231201 275.598755,649.282715 277.094727,649.165955 
	C278.819489,649.031311 279.808746,647.830994 279.836578,646.165466 
	C279.863647,644.547485 279.976166,642.541565 276.682281,643.457092 
M283.256531,639.654358 
	C282.040649,640.443970 281.061920,641.306458 282.505157,642.728455 
	C283.286774,643.498474 284.217010,643.681152 285.192596,643.128601 
	C286.474915,642.402222 287.135345,641.306335 286.620941,639.845703 
	C286.018158,638.134094 284.845337,638.939514 283.256531,639.654358 
z"/>
<path fill="#000000" opacity="1.000000" stroke="none" 
	d="
M343.299561,721.275146 
	C341.179504,723.279907 339.956421,725.848755 336.426758,726.692505 
	C335.687897,720.709778 337.327179,715.107788 337.163177,708.761292 
	C334.015381,712.415894 330.434021,714.915344 330.163269,719.773132 
	C327.638550,719.111694 326.137878,717.741089 325.092896,715.732117 
	C330.922852,712.562500 335.402191,708.319702 337.712677,701.262390 
	C344.449707,706.064392 339.646637,713.185791 341.593689,718.962158 
	C343.910187,716.428772 347.183716,714.671265 346.576843,710.205444 
	C349.332672,710.627319 350.601166,712.171509 352.046478,714.500183 
	C347.811493,715.155396 345.974915,718.431213 343.299561,721.275146 
z"/>
<path fill="#000000" opacity="1.000000" stroke="none" 
	d="
M611.396606,235.720184 
	C614.581970,241.282654 614.225342,245.797562 610.600952,249.133835 
	C606.528503,252.882538 599.150574,252.038849 591.854614,246.990112 
	C596.193481,242.065109 599.427795,236.691742 598.785461,229.084610 
	C603.265930,230.964798 607.768677,231.983673 611.396606,235.720184 
M598.532288,246.451080 
	C599.777466,249.657227 602.471802,249.313019 604.690186,248.362137 
	C608.038391,246.927063 609.315369,243.727936 609.311401,240.271576 
	C609.308655,237.898407 608.233765,235.775482 605.824646,234.730392 
	C603.898438,233.894760 603.075439,235.261505 602.460083,236.642227 
	C601.120422,239.647842 599.899048,242.706192 598.532288,246.451080 
z"/>
<path fill="#000000" opacity="1.000000" stroke="none" 
	d="
M782.280701,479.360657 
	C779.817688,479.274323 777.751343,481.069366 775.222595,478.987030 
	C777.838074,474.037323 782.638977,470.830383 786.143433,466.016296 
	C781.718750,466.300171 777.606812,466.022644 774.488037,469.426361 
	C772.406616,467.913696 772.702576,465.967194 772.998596,464.014282 
	C779.460510,464.642975 785.598755,463.983246 791.911743,460.198547 
	C793.643799,468.250183 786.217407,470.832306 783.102722,476.305206 
	C786.923279,476.017670 790.424194,476.186615 793.191101,473.026398 
	C794.807983,474.949066 794.589417,476.930237 795.389832,479.785919 
	C790.652100,477.445709 786.698059,478.909149 782.280701,479.360657 
z"/>
<path fill="#000000" opacity="1.000000" stroke="none" 
	d="
M773.886230,429.600616 
	C780.713562,428.489410 785.594055,431.311584 787.016968,436.856598 
	C788.315491,441.917053 785.181763,447.048065 779.734619,448.780151 
	C774.745544,450.366638 768.880615,447.630493 766.952698,442.817017 
	C764.891052,437.669678 767.371826,432.714966 773.886230,429.600616 
M773.971436,434.387695 
	C770.825989,435.693970 768.118103,437.558197 769.408875,441.430664 
	C770.812256,445.641235 774.612183,444.862183 777.850403,444.462341 
	C779.244995,444.290131 780.612000,443.375519 781.850525,442.578918 
	C783.780334,441.337677 785.106262,439.619904 784.333801,437.157776 
	C783.547119,434.650330 781.625427,433.394135 779.064575,433.412506 
	C777.609314,433.422913 776.157349,433.894653 773.971436,434.387695 
z"/>
<path fill="#000000" opacity="1.000000" stroke="none" 
	d="
M730.900391,329.290833 
	C735.839294,329.870392 734.374146,332.889038 733.108643,335.498413 
	C730.676636,340.512939 726.770813,344.752838 725.456909,350.634857 
	C722.340454,349.616425 721.666199,346.870087 719.956970,345.058563 
	C720.869690,342.912781 725.245789,344.421570 723.945129,340.965942 
	C723.271667,339.176483 722.194336,337.156281 720.038025,336.776489 
	C717.471436,336.324463 718.555542,339.170563 717.341248,340.350433 
	C714.993469,339.452515 713.945923,337.525940 712.889587,335.141541 
	C719.087952,333.595215 725.839905,334.432312 730.900391,329.290833 
z"/>
<path fill="#000000" opacity="1.000000" stroke="none" 
	d="
M317.098450,687.220154 
	C319.442993,686.886780 319.369049,684.594299 320.870087,683.612976 
	C324.056122,685.549561 323.457947,688.143982 322.343719,690.924072 
	C320.321960,695.968445 316.872284,700.390381 316.101074,706.167969 
	C312.928833,705.231506 312.147797,702.483582 310.168976,700.858093 
	C311.364655,698.934387 315.112488,699.893250 314.066132,696.935913 
	C313.435272,695.152893 312.021942,693.298828 310.017517,692.824951 
	C307.173859,692.152649 308.510803,695.492004 307.038605,696.573181 
	C304.987091,695.308777 303.406067,693.799072 302.309357,691.063721 
	C307.638947,690.940063 312.085632,688.757751 317.098450,687.220154 
z"/>
<path fill="#000000" opacity="1.000000" stroke="none" 
	d="
M747.578003,355.704437 
	C743.884094,356.988556 745.419800,359.867889 745.375977,362.100281 
	C745.297668,366.095459 744.590759,369.573029 739.888000,370.123505 
	C736.405457,370.531158 732.063599,365.807281 731.921204,361.904083 
	C731.861084,360.256348 732.478088,358.962616 733.861877,358.132874 
	C735.586182,357.098969 736.970093,357.581665 737.852417,358.920685 
	C738.132446,360.305939 737.511963,360.827972 736.813904,361.321228 
	C735.366455,362.344086 734.924377,363.598175 736.044861,365.126801 
	C736.656372,365.961029 737.486633,366.648712 738.554321,366.430511 
	C740.362671,366.060913 740.741577,364.594666 740.761230,363.007111 
	C740.787964,360.853577 740.641113,358.690033 740.801086,356.548096 
	C740.981445,354.131622 742.496521,352.564209 744.774048,351.997833 
	C747.550659,351.307251 749.631042,352.737762 751.162292,354.862000 
	C752.529114,356.757935 753.815918,358.952515 752.489624,361.293243 
	C751.080994,363.779358 749.175049,363.559479 747.212830,361.591553 
	C747.399841,359.567108 752.143311,358.076172 747.578003,355.704437 
z"/>
<path fill="#000000" opacity="1.000000" stroke="none" 
	d="
M685.852539,283.172424 
	C683.242615,290.062714 680.469055,290.608643 672.479858,286.158569 
	C669.861450,287.102203 670.535278,289.654816 669.861450,291.880707 
	C666.947327,291.264832 665.109619,289.490814 663.510010,287.190613 
	C669.455505,283.708527 673.670471,279.237885 675.087769,272.032013 
	C679.359741,275.214508 684.007446,277.510559 685.852539,283.172424 
M677.689758,285.566437 
	C680.104675,285.215881 681.801147,284.154144 681.594666,281.393585 
	C681.500061,280.129211 680.755920,279.048126 679.565002,278.804260 
	C677.252319,278.330658 676.538269,280.476166 675.460571,281.819336 
	C673.841309,283.837433 675.337036,284.746918 677.689758,285.566437 
z"/>
<path fill="#000000" opacity="1.000000" stroke="none" 
	d="
M710.974609,316.951904 
	C711.724487,318.385071 712.139648,319.751495 710.087402,319.213989 
	C708.926819,318.910004 708.001038,317.709686 707.023865,316.955109 
	C703.850159,317.571899 703.437317,320.191437 702.578430,322.689941 
	C699.572571,322.097992 698.389832,319.778442 696.774658,317.331421 
	C703.325684,314.928802 707.959839,310.712097 710.853821,304.244019 
	C714.220703,306.514160 716.929993,309.517151 718.936157,312.755188 
	C720.788513,315.745056 718.193298,316.919617 715.526367,317.394958 
	C713.970032,315.329590 717.201111,312.413300 713.532715,310.901031 
	C711.801270,312.313904 707.892944,312.604553 710.974609,316.951904 
z"/>
<path fill="#000000" opacity="1.000000" stroke="none" 
	d="
M656.142212,263.474487 
	C656.272644,262.056946 656.272644,260.950653 656.272644,259.538513 
	C659.656494,259.741974 661.306213,261.968781 663.550354,263.631378 
	C657.744080,267.717438 653.885010,272.460358 652.986633,279.487946 
	C650.340515,278.952789 648.398499,277.350250 646.140381,275.222809 
	C651.158081,272.650360 653.517395,268.163757 656.142212,263.474487 
z"/>
<path fill="#000000" opacity="1.000000" stroke="none" 
	d="
M775.815735,406.534241 
	C777.725281,408.669189 778.373657,410.954285 778.648621,413.480591 
	C771.694641,413.354309 765.929016,415.324341 760.948364,420.212341 
	C759.033875,418.325531 758.653503,415.755859 757.836731,412.982452 
	C764.893005,413.419647 770.685913,411.136658 775.815735,406.534241 
z"/>
</svg>